<svg width="36" height="36" viewBox="0 0 36 36" fill="none" xmlns="http://www.w3.org/2000/svg">
<path d="M3.13622 11.0392L18.0019 2.95328L32.8672 11.0392L32.8672 27.2112L18.0018 35.2971L3.13622 27.2112L3.13622 11.0392Z" fill="white"/>
<path d="M15.6142 2.95362C15.6142 1.71107 16.6835 0.703622 18.0024 0.703623C19.3213 0.703623 20.3906 1.71107 20.3906 2.95362C20.3906 4.19617 19.3213 5.20361 18.0024 5.20361C16.6835 5.20361 15.6142 4.19617 15.6142 2.95362Z" fill="#F5737F"/>
<path d="M0.747007 27.2102C0.747007 25.9676 1.81634 24.9605 3.13522 24.9605C4.45411 24.9605 5.52344 25.9676 5.52344 27.2102C5.52344 28.453 4.4541 29.4602 3.13522 29.4602C1.81634 29.4602 0.747007 28.453 0.747007 27.2102Z" fill="#FFCB7C"/>
<path d="M30.4775 27.2102C30.4775 25.9676 31.5468 24.9605 32.8657 24.9605C34.1846 24.9605 35.2539 25.9676 35.2539 27.2102C35.2539 28.453 34.1846 29.4602 32.8657 29.4602C31.5468 29.4602 30.4775 28.453 30.4775 27.2102Z" fill="#CFF1FB"/>
<path d="M18.0005 29.8428L27.8516 24.4845L27.8516 13.7675L18.0005 8.40893L8.14918 13.7675L8.14917 24.4844L18.0005 29.8428Z" fill="#E2F1A1"/>
<path d="M8.14865 13.7672L8.14865 24.4841L18 19.1255L18 8.40864L8.14865 13.7672Z" fill="#CBE558"/>
<path d="M27.8516 13.7672L27.8516 24.4841L18.0005 19.1255L18.0005 8.40865L27.8516 13.7672Z" fill="#D8EC84"/>
<path d="M7.68504e-07 27.2093C6.2614e-07 28.8378 1.40604 30.1625 3.13451 30.1625C4.02193 30.1625 4.82392 29.8126 5.39474 29.2523L17.627 35.9059C17.8579 36.0314 18.1421 36.0314 18.373 35.9059L30.6056 29.2523C31.1764 29.8126 31.9781 30.1625 32.8655 30.1625C34.594 30.1625 36 28.8378 36 27.2093C36 25.8234 34.9811 24.658 33.6118 24.3416L33.6118 11.0391C33.6118 10.788 33.4695 10.556 33.2386 10.4302L21.0102 3.77848C21.0912 3.51646 21.1355 3.2396 21.1355 2.95313C21.1355 1.32495 19.7295 -1.42241e-06 18.001 -1.57352e-06C16.2728 -1.7246e-06 14.8668 1.32495 14.8668 2.95313C14.8668 3.23932 14.9108 3.51563 14.9919 3.77765L2.76136 10.4302C2.53047 10.5557 2.3882 10.788 2.3882 11.0391L2.3882 24.3416C1.01889 24.658 8.89665e-07 25.8234 7.68504e-07 27.2093ZM34.5074 27.2093C34.5074 28.0624 33.771 28.7562 32.8655 28.7562C31.9603 28.7562 31.2239 28.0624 31.2239 27.2093C31.2239 26.3565 31.9603 25.6625 32.8655 25.6625C33.771 25.6625 34.5074 26.3565 34.5074 27.2093ZM18.001 1.40625C18.9065 1.40625 19.6429 2.10004 19.6429 2.95313C19.6429 3.80594 18.9065 4.50001 18.001 4.50001C17.0958 4.50001 16.3591 3.80594 16.3591 2.95313C16.3591 2.10004 17.0958 1.40625 18.001 1.40625ZM15.7393 4.99467C16.3104 5.5558 17.1127 5.90626 18.001 5.90626C18.8887 5.90626 19.691 5.55607 20.2618 4.99549L32.1192 11.445L32.1192 24.3416C30.7502 24.658 29.7313 25.8234 29.7313 27.2093C29.7313 27.4961 29.7756 27.7732 29.8569 28.0358L18.0001 34.485L6.14309 28.0358C6.22443 27.7732 6.26874 27.4964 6.26874 27.2093C6.26874 25.8234 5.24985 24.658 3.88083 24.3416L3.88083 11.445L15.7393 4.99467ZM3.13451 25.6625C4.03971 25.6625 4.7764 26.3565 4.7764 27.2093C4.7764 28.0624 4.03971 28.7562 3.13451 28.7562C2.22903 28.7562 1.49263 28.0624 1.49263 27.2093C1.49263 26.3565 2.22903 25.6625 3.13451 25.6625Z" fill="black"/>
<path d="M7.77582 25.0932L17.6272 30.4515C17.858 30.577 18.1423 30.577 18.3732 30.4515L28.2245 25.0932C28.4554 24.9674 28.5977 24.7353 28.5977 24.4843L28.5977 13.7674C28.5977 13.5163 28.4554 13.284 28.2245 13.1584L18.3732 7.79985C18.2577 7.73722 18.1292 7.70564 18.0003 7.70564C17.8712 7.70564 17.7426 7.73722 17.6272 7.79985L7.77582 13.1584C7.54493 13.284 7.40267 13.5163 7.40267 13.7674L7.40267 24.4843C7.40267 24.7353 7.54493 24.9674 7.77582 25.0932ZM18.0003 29.0307L9.6416 24.4843L18.0003 19.9376L26.3587 24.4843L18.0003 29.0307ZM17.254 9.6266L17.254 12.7975C17.254 13.1859 17.5881 13.5007 18.0003 13.5007C18.4122 13.5007 18.7463 13.1859 18.7463 12.7975L18.7463 9.6266L27.105 14.1733L27.105 23.2664L18.3732 18.5168C18.2577 18.4541 18.1292 18.4226 18.0003 18.4226C17.8712 18.4226 17.7426 18.4541 17.6272 18.5168L8.89529 23.2664L8.89529 14.1733L17.254 9.6266Z" fill="black"/>
<path d="M18.0028 16.665C18.1999 16.665 18.3917 16.5901 18.5314 16.459C18.6701 16.3283 18.75 16.147 18.75 15.9619C18.75 15.7771 18.6701 15.5958 18.5314 15.4651C18.3917 15.334 18.1999 15.2588 18.0028 15.2588C17.8066 15.2588 17.6139 15.334 17.4751 15.4651C17.3364 15.5958 17.2565 15.7771 17.2565 15.9619C17.2565 16.147 17.3364 16.3283 17.4751 16.459C17.6139 16.5901 17.8066 16.665 18.0028 16.665Z" fill="black"/>
</svg>
