<svg width="39" height="19" viewBox="0 0 39 19" fill="none" xmlns="http://www.w3.org/2000/svg">
<path d="M9.5 17C14.5 16.5 18 11.6667 19.5 9.5C15.5 3.9 11.5 2 9.5 2C3.9 2 2 6.5 2 9.5C2 15.9 7 17.1667 9.5 17Z" stroke="#0E0E0E" stroke-width="3"/>
<path d="M30 17C25 16.5 21.5 11.6667 20 9.5C24 3.9 28 2 30 2C35.6 2 37.5 6.5 37.5 9.5C37.5 15.9 32.5 17.1667 30 17Z" stroke="#0E0E0E" stroke-width="3"/>
<path d="M8.00111 5.5C6.33445 7 4.00184 9.9 8.00184 13.5" stroke="#EA39AA" stroke-linecap="round"/>
</svg>
