<svg width="12" height="12" viewBox="0 0 12 12" fill="none" xmlns="http://www.w3.org/2000/svg">
<path d="M6.44154 0.544013L8.02877 3.76005L11.5779 4.27576C11.9817 4.33443 12.143 4.83076 11.8508 5.11564L9.28258 7.61895L9.88883 11.1537C9.95783 11.5559 9.53563 11.8627 9.17441 11.6728L5.99998 10.0039L2.82557 11.6728C2.46435 11.8627 2.04215 11.5559 2.11115 11.1537L2.71741 7.61895L0.14923 5.11562C-0.143011 4.83074 0.0182622 4.33445 0.422136 4.27574L3.97124 3.76002L5.55844 0.544013C5.73908 0.178037 6.26091 0.178037 6.44154 0.544013Z" fill="url(#paint0_linear)"/>
<path d="M8.02872 3.76004L6.44154 0.544007C6.35123 0.361031 6.17562 0.269531 6 0.269531V6.35831L8.02872 3.76004Z" fill="url(#paint1_linear)"/>
<path d="M9.2826 7.619L11.8508 5.11565C11.9949 4.97512 12.0285 4.78319 11.9773 4.61768L6 6.35835L9.2826 7.619Z" fill="url(#paint2_linear)"/>
<path d="M9.69444 11.6343L6 6.3584V10.004L9.17441 11.6729C9.35567 11.7682 9.55224 11.7384 9.69444 11.6343Z" fill="url(#paint3_linear)"/>
<path d="M6.00177 6.3584L2.71917 7.61905L2.11294 11.1538C2.07856 11.3542 2.16617 11.5308 2.30733 11.6343L6.00177 6.3584Z" fill="url(#paint4_linear)"/>
<path d="M0.0234375 4.61763L6.00073 6.35828L3.97198 3.76001L0.422881 4.27575C0.218249 4.30547 0.0760779 4.44762 0.0234375 4.61763Z" fill="url(#paint5_linear)"/>
<path d="M2.71727 7.61898L0.14909 5.11565C0.00492617 4.97512 -0.0287065 4.78319 0.0225511 4.61768L5.99984 6.35833L2.71727 7.61898Z" fill="url(#paint6_linear)"/>
<defs>
<linearGradient id="paint0_linear" x1="6.00018" y1="1.60614" x2="6.00018" y2="14.8468" gradientUnits="userSpaceOnUse">
<stop stop-color="#FFCF95"/>
<stop offset="0.427" stop-color="#FFC954"/>
<stop offset="1" stop-color="#FFC200"/>
</linearGradient>
<linearGradient id="paint1_linear" x1="9.11026" y1="3.31361" x2="5.10765" y2="3.31361" gradientUnits="userSpaceOnUse">
<stop stop-color="#FFC200" stop-opacity="0"/>
<stop offset="0.203" stop-color="#FFBB00" stop-opacity="0.203"/>
<stop offset="0.499" stop-color="#FFA700" stop-opacity="0.499"/>
<stop offset="0.852" stop-color="#FF8800" stop-opacity="0.852"/>
<stop offset="1" stop-color="#FF7800"/>
</linearGradient>
<linearGradient id="paint2_linear" x1="9.79403" y1="9.44616" x2="8.73401" y2="4.22602" gradientUnits="userSpaceOnUse">
<stop stop-color="#FFC200" stop-opacity="0"/>
<stop offset="0.203" stop-color="#FFBB00" stop-opacity="0.203"/>
<stop offset="0.499" stop-color="#FFA700" stop-opacity="0.499"/>
<stop offset="0.852" stop-color="#FF8800" stop-opacity="0.852"/>
<stop offset="1" stop-color="#FF7800"/>
</linearGradient>
<linearGradient id="paint3_linear" x1="4.65415" y1="12.1895" x2="8.80577" y2="8.03791" gradientUnits="userSpaceOnUse">
<stop stop-color="#FFC200" stop-opacity="0"/>
<stop offset="0.203" stop-color="#FFBB00" stop-opacity="0.203"/>
<stop offset="0.499" stop-color="#FFA700" stop-opacity="0.499"/>
<stop offset="0.852" stop-color="#FF8800" stop-opacity="0.852"/>
<stop offset="1" stop-color="#FF7800"/>
</linearGradient>
<linearGradient id="paint4_linear" x1="1.69534" y1="6.9394" x2="4.75542" y2="9.49947" gradientUnits="userSpaceOnUse">
<stop stop-color="#FFC200" stop-opacity="0"/>
<stop offset="0.203" stop-color="#FFBB00" stop-opacity="0.203"/>
<stop offset="0.499" stop-color="#FFA700" stop-opacity="0.499"/>
<stop offset="0.852" stop-color="#FF8800" stop-opacity="0.852"/>
<stop offset="1" stop-color="#FF7800"/>
</linearGradient>
<linearGradient id="paint5_linear" x1="3.98825" y1="2.71637" x2="2.74822" y2="6.23646" gradientUnits="userSpaceOnUse">
<stop stop-color="#FFC200" stop-opacity="0"/>
<stop offset="0.203" stop-color="#FFBB00" stop-opacity="0.203"/>
<stop offset="0.499" stop-color="#FFA700" stop-opacity="0.499"/>
<stop offset="0.852" stop-color="#FF8800" stop-opacity="0.852"/>
<stop offset="1" stop-color="#FF7800"/>
</linearGradient>
<linearGradient id="paint6_linear" x1="8.65516" y1="3.08401" x2="-0.455093" y2="6.96412" gradientUnits="userSpaceOnUse">
<stop stop-color="#FFC200" stop-opacity="0"/>
<stop offset="0.203" stop-color="#FFBB00" stop-opacity="0.203"/>
<stop offset="0.499" stop-color="#FFA700" stop-opacity="0.499"/>
<stop offset="0.852" stop-color="#FF8800" stop-opacity="0.852"/>
<stop offset="1" stop-color="#FF7800"/>
</linearGradient>
</defs>
</svg>
