<svg width="18" height="18" viewBox="0 0 18 18" fill="none" xmlns="http://www.w3.org/2000/svg">
<path d="M9.00056 4.49219C6.5146 4.49219 4.49219 6.51499 4.49219 9.00096C4.49219 11.4869 6.5146 13.5097 9.00056 13.5097C11.4861 13.5097 13.5089 11.4873 13.5089 9.00096C13.5089 6.5146 11.4861 4.49219 9.00056 4.49219Z" fill="white"/>
<path d="M9.00077 3.16634C8.51489 3.16634 8.12109 2.77254 8.12109 2.28707V0.879672C8.12109 0.3938 8.51489 0 9.00077 0C9.48664 0 9.88044 0.3938 9.88044 0.879672V2.28707C9.88044 2.77254 9.48624 3.16634 9.00077 3.16634Z" fill="white"/>
<path d="M9.00077 14.833C8.51489 14.833 8.12109 15.2268 8.12109 15.7127V17.1197C8.12109 17.6059 8.51489 17.9997 9.00077 17.9997C9.48664 17.9997 9.88044 17.6059 9.88044 17.1197V15.7127C9.88044 15.2268 9.48624 14.833 9.00077 14.833Z" fill="white"/>
<path d="M13.1246 4.87553C12.7814 4.53195 12.7814 3.97513 13.1246 3.63155L14.1198 2.63629C14.463 2.29311 15.0202 2.29311 15.3638 2.63629C15.7074 2.97987 15.7074 3.53709 15.3638 3.88027L14.3686 4.87553C14.0254 5.21911 13.4685 5.21911 13.1246 4.87553Z" fill="white"/>
<path d="M4.87568 13.1252C4.5321 12.7812 3.97528 12.7812 3.6317 13.1252L2.63644 14.12C2.29326 14.4632 2.29286 15.0208 2.63644 15.364C2.98002 15.7072 3.53724 15.7072 3.88042 15.364L4.87568 14.3684C5.21926 14.0252 5.21926 13.468 4.87568 13.1252Z" fill="white"/>
<path d="M14.834 8.99979C14.834 8.51392 15.2278 8.12012 15.7137 8.12012H17.1211C17.6069 8.12012 18.0007 8.51392 18.0007 8.99979C18.0007 9.48566 17.6069 9.87906 17.1211 9.87906H15.7137C15.2278 9.87906 14.834 9.48566 14.834 8.99979Z" fill="white"/>
<path d="M3.16634 8.99979C3.16634 8.51392 2.77254 8.12012 2.28667 8.12012H0.879672C0.3938 8.12012 0 8.51392 0 8.99979C0 9.48566 0.3938 9.87906 0.879672 9.87906H2.28707C2.77254 9.87906 3.16634 9.48566 3.16634 8.99979Z" fill="white"/>
<path d="M13.1249 13.1255C13.4684 12.7824 14.0257 12.7824 14.3688 13.1255L15.3641 14.1208C15.7077 14.4636 15.7077 15.0212 15.3641 15.3644C15.0205 15.7076 14.4637 15.7076 14.1201 15.3644L13.1249 14.3691C12.7813 14.0255 12.7813 13.4687 13.1249 13.1255Z" fill="white"/>
<path d="M4.87583 4.87445C5.21941 4.53087 5.21941 3.97405 4.87583 3.63048L3.88057 2.63561C3.53699 2.29204 2.98017 2.29204 2.63659 2.63561C2.29301 2.97879 2.29301 3.53601 2.63659 3.87919L3.63185 4.87445C3.97543 5.21843 4.53225 5.21843 4.87583 4.87445Z" fill="white"/>
</svg>
