<svg width="18" height="18" viewBox="0 0 18 18" fill="none" xmlns="http://www.w3.org/2000/svg">
<path d="M17.2426 13.0248C17.0818 12.8268 16.8118 12.7536 16.5742 12.8388C15.9082 13.0776 15.1858 13.2 14.425 13.2C10.7854 13.2 7.825 10.2384 7.825 6.6C7.825 4.41 8.9062 2.3712 10.717 1.1448C10.9222 1.0056 11.0206 0.7548 10.9654 0.5136C10.9102 0.2724 10.7122 0.09 10.4662 0.054C10.1854 0.0132 9.9058 0 9.625 0C4.6618 0 0.625 4.0368 0.625 9C0.625 13.9632 4.6618 18 9.625 18C12.775 18 15.6406 16.3992 17.2882 13.7184C17.4214 13.5012 17.4022 13.224 17.2426 13.0248Z" fill="black"/>
</svg>
