<svg width="22" height="21" viewBox="0 0 22 21" fill="none" xmlns="http://www.w3.org/2000/svg">
<path d="M20.5244 1L12.5 6.9375L13.9922 3.43834L20.5244 1Z" fill="#E17726" stroke="#E17726" stroke-width="0.25" stroke-linecap="round" stroke-linejoin="round"/>
<path d="M2.01562 1L9.9686 6.99291L8.54787 3.43833L2.01562 1Z" fill="#E27625" stroke="#E27625" stroke-width="0.25" stroke-linecap="round" stroke-linejoin="round"/>
<path d="M17.6351 14.7656L15.5 18.0273L20.0718 19.2861L21.3814 14.8369L17.6351 14.7656Z" fill="#E27625" stroke="#E27625" stroke-width="0.25" stroke-linecap="round" stroke-linejoin="round"/>
<path d="M1.16797 14.8369L2.46964 19.2861L7.03349 18.0273L4.90633 14.7656L1.16797 14.8369Z" fill="#E27625" stroke="#E27625" stroke-width="0.25" stroke-linecap="round" stroke-linejoin="round"/>
<path d="M6.78554 9.25878L5.51562 11.1746L10.0398 11.3805L9.88897 6.51172L6.78554 9.25878Z" fill="#E27625" stroke="#E27625" stroke-width="0.25" stroke-linecap="round" stroke-linejoin="round"/>
<path d="M15.7542 9.25561L12.6032 6.45312L12.5 11.3773L17.0241 11.1715L15.7542 9.25561Z" fill="#E27625" stroke="#E27625" stroke-width="0.25" stroke-linecap="round" stroke-linejoin="round"/>
<path d="M7.03516 18.0298L9.77342 16.7078L7.41615 14.8711L7.03516 18.0298Z" fill="#E27625" stroke="#E27625" stroke-width="0.25" stroke-linecap="round" stroke-linejoin="round"/>
<path d="M12.7695 16.7078L15.4999 18.0298L15.1268 14.8711L12.7695 16.7078Z" fill="#E27625" stroke="#E27625" stroke-width="0.25" stroke-linecap="round" stroke-linejoin="round"/>
<path d="M15.4999 18.0291L12.7695 16.707L12.9917 18.4803L12.9679 19.2324L15.4999 18.0291Z" fill="#D5BFB2" stroke="#D5BFB2" stroke-width="0.25" stroke-linecap="round" stroke-linejoin="round"/>
<path d="M7.03516 18.0291L9.57504 19.2324L9.55916 18.4803L9.77342 16.707L7.03516 18.0291Z" fill="#D5BFB2" stroke="#D5BFB2" stroke-width="0.25" stroke-linecap="round" stroke-linejoin="round"/>
<path d="M9.62159 13.6981L7.35156 13.0331L8.95485 12.2969L9.62159 13.6981Z" fill="#233447" stroke="#233447" stroke-width="0.25" stroke-linecap="round" stroke-linejoin="round"/>
<path d="M12.9219 13.6981L13.5886 12.2969L15.1998 13.0331L12.9219 13.6981Z" fill="#233447" stroke="#233447" stroke-width="0.25" stroke-linecap="round" stroke-linejoin="round"/>
<path d="M7.03337 18.0273L7.43025 14.7656L4.90625 14.8369L7.03337 18.0273Z" fill="#CC6228" stroke="#CC6228" stroke-width="0.25" stroke-linecap="round" stroke-linejoin="round"/>
<path d="M15.1133 14.7656L15.5022 18.0273L17.6373 14.8369L15.1133 14.7656Z" fill="#CC6228" stroke="#CC6228" stroke-width="0.25" stroke-linecap="round" stroke-linejoin="round"/>
<path d="M17.0241 11.1719L12.5 11.3777L12.9206 13.6973L13.5874 12.296L15.1986 13.0323L17.0241 11.1719Z" fill="#CC6228" stroke="#CC6228" stroke-width="0.25" stroke-linecap="round" stroke-linejoin="round"/>
<path d="M7.34909 13.0323L8.95237 12.296L9.61911 13.6973L10.0398 11.3777L5.51562 11.1719L7.34909 13.0323Z" fill="#CC6228" stroke="#CC6228" stroke-width="0.25" stroke-linecap="round" stroke-linejoin="round"/>
<path d="M5.51562 11.1719L7.4126 14.869L7.34906 13.0323L5.51562 11.1719Z" fill="#E27525" stroke="#E27525" stroke-width="0.25" stroke-linecap="round" stroke-linejoin="round"/>
<path d="M15.2003 13.0323L15.1289 14.869L17.0259 11.1719L15.2003 13.0323Z" fill="#E27525" stroke="#E27525" stroke-width="0.25" stroke-linecap="round" stroke-linejoin="round"/>
<path d="M10.0418 11.3789L9.62109 13.6985L10.1529 16.4377L10.272 12.8277L10.0418 11.3789Z" fill="#E27525" stroke="#E27525" stroke-width="0.25" stroke-linecap="round" stroke-linejoin="round"/>
<path d="M12.4996 11.3789L12.2773 12.8198L12.3885 16.4377L12.9203 13.6985L12.4996 11.3789Z" fill="#E27525" stroke="#E27525" stroke-width="0.25" stroke-linecap="round" stroke-linejoin="round"/>
<path d="M12.9224 13.6963L12.3906 16.4354L12.7716 16.7046L15.129 14.8679L15.2004 13.0312L12.9224 13.6963Z" fill="#F5841F" stroke="#F5841F" stroke-width="0.25" stroke-linecap="round" stroke-linejoin="round"/>
<path d="M7.35156 13.0352L7.4151 14.8718L9.77237 16.7085L10.1534 16.4393L9.62159 13.7002L7.35156 13.0352Z" fill="#F5841F" stroke="#F5841F" stroke-width="0.25" stroke-linecap="round" stroke-linejoin="round"/>
<path d="M12.9721 19.2307L12.9959 18.4786L12.7896 18.3044H9.7576L9.55916 18.4786L9.57504 19.2307L7.03516 18.0273L7.9241 18.7557L9.72583 19.9986H12.8133L14.623 18.7557L15.504 18.0273L12.9721 19.2307Z" fill="#C0AC9D" stroke="#C0AC9D" stroke-width="0.25" stroke-linecap="round" stroke-linejoin="round"/>
<path d="M12.7692 16.7066L12.3882 16.4375H10.1499L9.76901 16.7066L9.55469 18.48L9.75313 18.3058H12.7851L12.9915 18.48L12.7692 16.7066Z" fill="#161616" stroke="#161616" stroke-width="0.25" stroke-linecap="round" stroke-linejoin="round"/>
<path d="M20.8653 7.3254L21.54 4.04792L20.524 1L12.7695 6.73961L15.7538 9.25707L19.9684 10.4842L20.8971 9.39961L20.4923 9.10665L21.1352 8.52086L20.6431 8.14085L21.286 7.65L20.8653 7.3254Z" fill="#763E1A" stroke="#763E1A" stroke-width="0.25" stroke-linecap="round" stroke-linejoin="round"/>
<path d="M1 4.04792L1.68259 7.3254L1.24605 7.65L1.89689 8.14085L1.40479 8.52086L2.04769 9.10665L1.6429 9.39961L2.57154 10.4842L6.78616 9.25707L9.77046 6.73961L2.01595 1L1 4.04792Z" fill="#763E1A" stroke="#763E1A" stroke-width="0.25" stroke-linecap="round" stroke-linejoin="round"/>
<path d="M19.9705 10.4849L15.7559 9.25781L17.0259 11.1737L15.1289 14.8707L17.637 14.8391H21.3833L19.9705 10.4849Z" fill="#F5841F" stroke="#F5841F" stroke-width="0.25" stroke-linecap="round" stroke-linejoin="round"/>
<path d="M6.7874 9.25781L2.57283 10.4849L1.16797 14.8391H4.90633L7.41442 14.8707L5.51749 11.1737L6.7874 9.25781Z" fill="#F5841F" stroke="#F5841F" stroke-width="0.25" stroke-linecap="round" stroke-linejoin="round"/>
<path d="M12.4995 11.3779L12.7694 6.73872L13.9917 3.4375H8.54688L9.76916 6.73872L10.039 11.3779L10.1422 12.8346L10.1502 16.4367H12.3884L12.3964 12.8346L12.4995 11.3779Z" fill="#F5841F" stroke="#F5841F" stroke-width="0.25" stroke-linecap="round" stroke-linejoin="round"/>
</svg>
