<svg width="34" height="34" viewBox="0 0 34 34" fill="none" xmlns="http://www.w3.org/2000/svg">
<circle cx="17" cy="17" r="17" fill="white"/>
<path fillRule="evenodd" clipRule="evenodd" d="M10.7837 8.6665H13.6003C14.7753 8.6665 15.717 9.62484 15.717 10.8007V13.6415C15.717 14.8248 14.7753 15.7748 13.6003 15.7748H10.7837C9.61699 15.7748 8.66699 14.8248 8.66699 13.6415V10.8007C8.66699 9.62484 9.61699 8.6665 10.7837 8.6665ZM10.7837 18.2246H13.6003C14.7753 18.2246 15.717 19.1754 15.717 20.3588V23.1996C15.717 24.3746 14.7753 25.3329 13.6003 25.3329H10.7837C9.61699 25.3329 8.66699 24.3746 8.66699 23.1996V20.3588C8.66699 19.1754 9.61699 18.2246 10.7837 18.2246ZM23.2171 8.6665H20.4004C19.2254 8.6665 18.2837 9.62484 18.2837 10.8007V13.6415C18.2837 14.8248 19.2254 15.7748 20.4004 15.7748H23.2171C24.3837 15.7748 25.3337 14.8248 25.3337 13.6415V10.8007C25.3337 9.62484 24.3837 8.6665 23.2171 8.6665ZM20.4004 18.2246H23.2171C24.3837 18.2246 25.3337 19.1754 25.3337 20.3588V23.1996C25.3337 24.3746 24.3837 25.3329 23.2171 25.3329H20.4004C19.2254 25.3329 18.2837 24.3746 18.2837 23.1996V20.3588C18.2837 19.1754 19.2254 18.2246 20.4004 18.2246Z" fill="#341EFF"/>
</svg>
