<svg width="11" height="13" viewBox="0 0 11 13" fill="none" xmlns="http://www.w3.org/2000/svg">
<path d="M9.13051 13H10.2325V5.11444H9.13051V13ZM10.2325 0H9.13051V1.27748H10.2325V0ZM4.94899 13H6.05101V8.37064H4.94899V13ZM6.05101 0H4.94899V4.66095H6.05101V0ZM0.767475 13H1.86949V11.6773H0.767475V13ZM1.86949 0H0.767475V8.04322H1.86949V0ZM9.68152 1.90843C8.9534 1.90843 8.36304 2.47529 8.36304 3.17442C8.36304 3.87355 8.9534 4.44041 9.68152 4.44041C10.4096 4.44041 11 3.87355 11 3.17442C11 2.47529 10.4096 1.90843 9.68152 1.90843ZM5.4926 5.23401C4.76448 5.23401 4.17412 5.80087 4.17412 6.5C4.17412 7.19913 4.76448 7.76599 5.4926 7.76599C6.22072 7.76599 6.81108 7.19913 6.81108 6.5C6.81108 5.80087 6.22072 5.23401 5.4926 5.23401ZM1.31848 8.55959C0.590365 8.55959 0 9.12645 0 9.82558C0 10.5247 0.590365 11.0916 1.31848 11.0916C2.0466 11.0916 2.63696 10.5247 2.63696 9.82558C2.63696 9.12645 2.0466 8.55959 1.31848 8.55959Z" fill="black"/>
</svg>
