<svg width="18" height="18" viewBox="0 0 18 18" fill="none" xmlns="http://www.w3.org/2000/svg">
<path d="M9 18C13.9706 18 18 13.9706 18 9C18 4.02944 13.9706 0 9 0C4.02944 0 0 4.02944 0 9C0 13.9706 4.02944 18 9 18Z" fill="#6300FF"/>
<path d="M12.8643 5.39557L7.90559 10.3544L5.13402 7.58267C4.91074 7.35939 4.60791 7.23395 4.29215 7.23395C3.97638 7.23395 3.67355 7.35939 3.45028 7.58267C3.227 7.80594 3.10156 8.10877 3.10156 8.42454C3.10156 8.7403 3.227 9.04313 3.45028 9.26641L7.0638 12.8799C7.17435 12.9905 7.3056 13.0782 7.45005 13.138C7.5945 13.1979 7.74932 13.2287 7.90567 13.2287C8.06202 13.2287 8.21684 13.1979 8.36129 13.138C8.50574 13.0782 8.63699 12.9905 8.74754 12.8799L14.548 7.07946C14.7713 6.85619 14.8968 6.55335 14.8968 6.23757C14.8968 5.92179 14.7714 5.61894 14.5481 5.39565C14.3248 5.17235 14.022 5.04689 13.7062 5.04688C13.3904 5.04686 13.0876 5.17229 12.8643 5.39557Z" fill="#F5F3F8"/>
</svg>
