<svg width="18" height="18" viewBox="0 0 18 18" fill="none" xmlns="http://www.w3.org/2000/svg">
<path d="M9 18C13.9706 18 18 13.9706 18 9C18 4.02944 13.9706 0 9 0C4.02944 0 0 4.02944 0 9C0 13.9706 4.02944 18 9 18Z" fill="#6300FF"/>
<path d="M12.8657 5.39654L7.90706 10.3554L5.13548 7.58364C4.9122 7.36036 4.60937 7.23493 4.29361 7.23493C3.97785 7.23493 3.67502 7.36036 3.45174 7.58364C3.22846 7.80692 3.10303 8.10975 3.10303 8.42551C3.10303 8.74127 3.22846 9.0441 3.45174 9.26738L7.06527 12.8809C7.17582 12.9915 7.30707 13.0792 7.45152 13.139C7.59596 13.1988 7.75078 13.2296 7.90714 13.2296C8.06349 13.2296 8.21831 13.1988 8.36276 13.139C8.5072 13.0792 8.63845 12.9915 8.74901 12.8809L14.5495 7.08044C14.7728 6.85716 14.8982 6.55433 14.8982 6.23855C14.8983 5.92277 14.7728 5.61992 14.5496 5.39662C14.3263 5.17332 14.0234 5.04787 13.7077 5.04785C13.3919 5.04784 13.089 5.17326 12.8657 5.39654Z" fill="#F5F3F8"/>
</svg>
