<svg width="20" height="20" viewBox="0 0 20 20" fill="none" xmlns="http://www.w3.org/2000/svg">
<path d="M10 20C15.5228 20 20 15.5228 20 10C20 4.47715 15.5228 0 10 0C4.47715 0 0 4.47715 0 10C0 15.5228 4.47715 20 10 20Z" fill="url(#paint0_linear)"/>
<path opacity="0.2" d="M19.05 10.0844L15.9187 17.75L14.2625 13.8375L15.7719 10.1469H14.9562L13.725 13.2156L12.5062 10.1469H11.7031L13.2125 13.8375L11.5687 17.75L8.425 10.0844L6.84688 6.36563L8.47187 2.45313L11.6031 10.1188H12.5281L8.8625 1.46875H8.10625L6.29063 5.7125L4.4625 1.46875H3.71875L0.0625 10.1188H0.978125L4.12187 2.45313L5.76562 6.36563L4.25625 10.0594H5.05937L6.27813 6.9875L7.50937 10.0844L11.1656 18.7375H11.9094L13.7375 14.4594L15.5531 18.7375H16.3094L19.975 10.0844H19.05V10.0844Z" fill="white"/>
<path d="M10.7297 13.9063C10.4901 13.9627 10.2446 13.991 9.99844 13.9906C8.25469 13.9906 6.77032 12.6625 6.66407 10.6906C6.6894 10.3141 6.74903 9.94069 6.84219 9.575L4.13594 8.4375C3.85367 9.20829 3.70979 10.0229 3.71094 10.8438C3.71094 14.225 6.60782 16.9656 9.98907 16.9656C10.7679 16.963 11.5391 16.8113 12.2609 16.5188L10.7297 13.9063Z" fill="url(#paint1_linear)"/>
<path d="M9.99609 4.37501C9.1172 4.37375 8.24842 4.56243 7.44922 4.92813L8.96797 7.50938C9.29877 7.39545 9.64622 7.33736 9.99609 7.33751C11.5398 7.33751 13.1773 8.63126 13.3336 10.225L8.94297 10.2438L15.7898 13.1563C16.1317 12.3334 16.2937 11.4469 16.2648 10.5563C16.2648 7.18751 13.3773 4.37501 9.99609 4.37501Z" fill="url(#paint2_linear)"/>
<path d="M10.7297 13.2367C10.4901 13.2932 10.2446 13.3215 9.99844 13.3211C8.25469 13.3211 6.77032 11.993 6.66407 10.0211C6.6894 9.64458 6.74903 9.27116 6.84219 8.90547L4.13594 7.75547C3.85367 8.52627 3.70979 9.34087 3.71094 10.1617C3.71094 13.543 6.60782 16.2836 9.98907 16.2836C10.7671 16.2849 11.5383 16.1375 12.2609 15.8492L10.7297 13.2367ZM9.99844 3.71485C9.11955 3.71359 8.25077 3.90227 7.45157 4.26797L8.97032 6.84922C9.30112 6.73529 9.64857 6.6772 9.99844 6.67735C11.5422 6.67735 13.1797 7.9711 13.3359 9.56485L8.94532 9.5836L15.7922 12.4992C16.1341 11.6763 16.296 10.7898 16.2672 9.89922C16.2672 6.50548 13.3797 3.71485 9.99844 3.71485V3.71485Z" fill="white"/>
<defs>
<linearGradient id="paint0_linear" x1="16.4969" y1="0.437499" x2="-1.69687" y2="27.2125" gradientUnits="userSpaceOnUse">
<stop stop-color="#1ABC9C"/>
<stop offset="1" stop-color="#1A5DAF"/>
</linearGradient>
<linearGradient id="paint1_linear" x1="317.667" y1="37.092" x2="241.272" y2="548.581" gradientUnits="userSpaceOnUse">
<stop stop-color="#1ABC9C"/>
<stop offset="1" stop-color="#1A5DAF"/>
</linearGradient>
<linearGradient id="paint2_linear" x1="415.94" y1="46.525" x2="337.319" y2="573.236" gradientUnits="userSpaceOnUse">
<stop stop-color="#1ABC9C"/>
<stop offset="1" stop-color="#1A5DAF"/>
</linearGradient>
</defs>
</svg>
