<svg width="14" height="20" viewBox="0 0 14 20" fill="none" xmlns="http://www.w3.org/2000/svg">
<path d="M0.199219 11.4989L0.683648 11.2913L6.61543 8.71094L13.0316 11.4989L10.6194 16.4816L4.72715 17.312L0.298082 12.5271L0.199219 11.4989Z" fill="#133444"/>
<path d="M11.6975 8.43234C10.6397 7.15701 9.13697 6.32656 7.49584 6.10906C7.4563 6.10906 7.42664 6.09918 7.38709 6.09918C6.873 6.03986 6.35892 6.03986 5.84483 6.09918C5.80528 6.09918 5.77562 6.10906 5.73608 6.10906C4.09495 6.32656 2.59223 7.15701 1.5344 8.43234L1.26747 8.87723L0.822583 9.6187L0.496335 10.1624C0.496335 10.1822 0.486449 10.1921 0.476562 10.202V10.2119L1.18838 10.637L5.73608 13.3261L6.61596 13.8402V7.41405L5.73608 7.80951V6.85054L6.61596 6.45508L7.49584 6.85054L11.9645 8.87723L11.6975 8.43234Z" fill="#C42370"/>
<path d="M5.84312 6.09033L6.61426 6.44623L5.73438 6.84169V6.05078L5.84312 6.09033Z" fill="black"/>
<path d="M5.73438 7.81159L6.61426 7.40625V13.8323L5.73438 13.3183V7.81159Z" fill="black"/>
<path d="M6.61328 7.40625V13.8323L12.7626 10.2041L6.61328 7.40625Z" fill="#1D4259"/>
<path d="M6.61328 0V7.40484L12.7626 10.2027L6.61328 0Z" fill="#4B6B9A"/>
<path d="M6.61596 7.40312V13.8292L5.73608 13.3151L0.476562 10.2009C0.476562 10.1812 0.486449 10.1713 0.496335 10.1614L1.26747 8.88607L5.73608 6.85938V7.82823L6.61596 7.40312Z" fill="#343535"/>
<path d="M6.61413 7.40625V13.8323L5.73425 13.3183L0.47473 10.2041H0.464844L0.47473 10.1942L5.73425 7.81159L6.61413 7.40625Z" fill="#3E5578"/>
<path d="M6.61413 0V7.40484L0.464844 10.2027L6.61413 0Z" fill="#6DB2D8"/>
<path d="M4.12109 19.4766C4.21007 19.5161 4.30893 19.5557 4.39791 19.5952C4.30893 19.5557 4.21996 19.5161 4.12109 19.4766Z" fill="#335F8A"/>
<path d="M4.39844 19.5859C4.48741 19.6255 4.58628 19.6551 4.68514 19.6848C4.58628 19.6551 4.4973 19.6255 4.39844 19.5859Z" fill="#335F8A"/>
<path d="M4.93359 19.7617C5.01268 19.7815 5.08189 19.8013 5.15109 19.821L4.93359 19.7617Z" fill="#335F8A"/>
<path d="M0.197726 11.4961L6.61394 15.2924C6.52496 15.8658 6.37667 16.4294 6.14928 16.9731C5.63519 18.2188 4.59713 19.5238 2.59021 18.5253C0.958972 17.1906 0.00988631 15.1936 0 13.0878C0 12.5539 0.0692042 12.0201 0.197726 11.4961Z" fill="#6DB2D8"/>
<path d="M10.6175 18.5378C10.578 18.5674 10.6175 18.5378 10.489 18.6465L10.4297 18.686L10.3407 18.7454L10.232 18.8245C10.3407 18.7454 10.143 18.8838 10.1034 18.9134C10.0639 18.9332 10.0342 18.953 9.99469 18.9826L9.92548 19.0321C9.90571 19.042 9.87605 19.0617 9.85628 19.0815C9.85628 19.0815 9.82662 19.1112 9.81673 19.1112C9.85628 19.0815 9.7673 19.1309 9.72776 19.1606C9.67833 19.1804 9.63878 19.2001 9.59924 19.2298L9.46083 19.299L9.40151 19.3287C9.36196 19.3484 9.38174 19.3287 9.34219 19.3583C9.30265 19.388 9.25322 19.3979 9.20378 19.4275C9.15435 19.4572 9.20378 19.4275 9.03572 19.5066C9.20378 19.4275 9.03572 19.5066 8.94674 19.5462C9.03572 19.5066 8.78856 19.6055 8.67981 19.645C8.64026 19.6549 8.42277 19.7241 8.38322 19.734C8.34367 19.7439 8.29424 19.7637 8.2547 19.7735C8.17561 19.7933 8.1064 19.8131 8.0372 19.8329C8.00754 19.8427 7.97788 19.8427 7.95811 19.8526L7.90868 19.8625L7.79004 19.8922C7.7505 19.9021 7.72084 19.9021 7.68129 19.9119C7.64175 19.9218 7.61209 19.9218 7.58243 19.9317C7.55277 19.9416 7.50334 19.9416 7.47368 19.9515C7.45391 19.9515 7.43413 19.9515 7.42425 19.9614L7.34516 19.9713H7.30561C7.27595 19.9713 7.24629 19.9812 7.21664 19.9812C7.18698 19.9812 7.13755 19.991 7.098 19.991H6.0896C6.05005 19.991 6.01051 19.9812 5.97096 19.9812C5.9413 19.9812 5.91164 19.9812 5.88198 19.9713H5.84244C5.81278 19.9713 5.78312 19.9614 5.76335 19.9614C5.74358 19.9614 5.7238 19.9614 5.71392 19.9515C5.67437 19.9515 5.64471 19.9416 5.60517 19.9317C5.57551 19.9317 5.53596 19.9218 5.5063 19.9119C5.47665 19.9021 5.4371 19.9021 5.39756 19.8922L5.27892 19.8625L5.22949 19.8526C5.19983 19.8526 5.17017 19.8427 5.1504 19.8329C5.07131 19.8131 5.0021 19.7933 4.9329 19.7735L4.80438 19.734C4.76483 19.7241 4.72529 19.7142 4.68574 19.6944C4.58688 19.6648 4.4979 19.6252 4.39904 19.5956C4.30018 19.5659 4.2112 19.5165 4.12222 19.477C4.08268 19.4572 4.03324 19.4374 3.98381 19.4176C3.93438 19.3979 3.88495 19.3781 3.8454 19.3484C3.79597 19.3287 3.75643 19.3089 3.71688 19.2792C3.67734 19.2595 3.62791 19.2298 3.58836 19.21C3.54882 19.1902 3.51916 19.1705 3.4895 19.1507C3.39063 19.0914 3.33132 19.0518 3.39063 19.0914L3.33132 19.0518L3.22257 18.9826L3.18302 18.9629L3.08416 18.8937C3.04461 18.864 3.00507 18.8442 2.96552 18.8146C2.92598 18.7849 2.87655 18.7552 2.837 18.7256C2.79746 18.6959 2.75791 18.6564 2.72825 18.6366L2.68871 18.607C2.64916 18.5872 2.6195 18.5575 2.58984 18.5279C4.59676 19.5264 5.62494 18.2016 6.13903 16.9658C6.35653 16.4221 6.51471 15.8586 6.60368 15.2852C6.69266 15.8684 6.84096 16.4419 7.06834 16.9856C7.6022 18.2115 8.61061 19.5264 10.6175 18.5378Z" fill="#529BBA"/>
<path d="M8.07812 19.821C8.15722 19.8013 8.22642 19.7815 8.29562 19.7617L8.07812 19.821Z" fill="#335F8A"/>
<path d="M8.54297 19.6848C8.64183 19.6551 8.73081 19.6255 8.82967 19.5859C8.73081 19.6255 8.64183 19.6551 8.54297 19.6848Z" fill="#335F8A"/>
<path d="M8.80859 19.5934C8.89757 19.5538 9.01621 19.5143 9.10518 19.4648C9.00632 19.5143 8.89757 19.5538 8.80859 19.5934Z" fill="#335F8A"/>
<path d="M13.2272 13.0977C13.2173 15.2035 12.2682 17.1906 10.637 18.5253C8.63009 19.5238 7.59203 18.2089 7.07794 16.9731C6.86044 16.4294 6.70226 15.8658 6.61328 15.2924L13.0295 11.4961C13.158 12.0201 13.2272 12.5539 13.2272 13.0977Z" fill="#4B6B9A"/>
</svg>
