<svg width="14" height="14" viewBox="0 0 14 14" fill="none" xmlns="http://www.w3.org/2000/svg">
<path fillRule="evenodd" clipRule="evenodd" d="M13.0178 12.1912L10.5194 9.69333C11.2644 8.76393 11.6697 7.60791 11.668 6.41675C11.668 3.51875 9.31597 1.16675 6.41797 1.16675C3.51997 1.16675 1.16797 3.51875 1.16797 6.41675C1.16797 9.31475 3.51997 11.6667 6.41797 11.6667C7.60914 11.6684 8.76515 11.2632 9.69455 10.5182L12.1924 13.0166L13.0178 12.1912ZM10.502 6.41679C10.5036 7.47871 10.0902 8.49922 9.34987 9.26054L9.26237 9.34804C8.50105 10.0884 7.48054 10.5018 6.41862 10.5001C4.16229 10.5001 2.33529 8.67254 2.33529 6.41679C2.33529 4.16046 4.16229 2.33346 6.41862 2.33346C8.67437 2.33346 10.502 4.16046 10.502 6.41679Z" fill="black"/>
</svg>
