<svg width="14" height="14" viewBox="0 0 14 14" fill="none" xmlns="http://www.w3.org/2000/svg">
<path fill-rule="evenodd" clip-rule="evenodd" d="M13.0178 12.1914L10.5194 9.69357C11.2644 8.76417 11.6697 7.60816 11.668 6.41699C11.668 3.51899 9.31597 1.16699 6.41797 1.16699C3.51997 1.16699 1.16797 3.51899 1.16797 6.41699C1.16797 9.31499 3.51997 11.667 6.41797 11.667C7.60914 11.6687 8.76515 11.2635 9.69455 10.5184L12.1924 13.0168L13.0178 12.1914ZM10.502 6.41703C10.5036 7.47895 10.0902 8.49947 9.34987 9.26078L9.26237 9.34828C8.50105 10.0886 7.48054 10.502 6.41862 10.5004C4.16229 10.5004 2.33529 8.67278 2.33529 6.41703C2.33529 4.1607 4.16229 2.3337 6.41862 2.3337C8.67437 2.3337 10.502 4.1607 10.502 6.41703Z" fill="white"/>
</svg>
