<svg width="19" height="20" viewBox="0 0 19 20" fill="none" xmlns="http://www.w3.org/2000/svg">
<path fillRule="evenodd" clipRule="evenodd" d="M1.87971 0C0.841576 0 0 0.838297 0 1.87238V4.05353C0 5.08762 0.841576 5.92591 1.87971 5.92591H5.20543V18.1276C5.20543 19.1617 6.04701 20 7.08513 20H9.27487C10.313 20 11.1546 19.1617 11.1546 18.1276V4.0694C11.1546 4.06414 11.1546 4.05884 11.1546 4.05353V1.87238C11.1546 0.838297 10.3131 0 9.27491 0H7.08513H1.87971Z" fill="#0364FF"/>
<path d="M15.6191 5.92591C17.2619 5.92591 18.5937 4.59936 18.5937 2.96296C18.5937 1.32656 17.2619 0 15.6191 0C13.9763 0 12.6445 1.32656 12.6445 2.96296C12.6445 4.59936 13.9763 5.92591 15.6191 5.92591Z" fill="#0016DE"/>
</svg>
